<?xml version="1.0" encoding="UTF-8"?>
<svg id="Layer_1" xmlns="http://www.w3.org/2000/svg" version="1.1" viewBox="0 0 1024 1024">
  <!-- Generator: Adobe Illustrator 29.5.1, SVG Export Plug-In . SVG Version: 2.1.0 Build 141)  -->
  <defs>
    <style>
      .st0 {
        fill: #e53e10;
      }

      .st1 {
        fill: #fbba18;
      }
    </style>
  </defs>
  <path class="st1" d="M390,9.46c220.22,22.25,311.57,295.88,141.58,443.18-123.76,107.24-318.55,65.1-389.85-80.71C64.76,214.51,171.74,22.71,347.05,9.46h42.95ZM313.86,212.48c13.25-31.33,43.93-44.97,77.08-42.91,13.24.82,47.25,12.57,56.33,9.4,3.53-1.23,16.21-29.99,16.42-34.18.6-12.01-22.85-17.55-31.88-20-75.69-20.5-148.43,10.01-172.52,86.79l-36.71,3.31c-3.91,3.9-4.52,30.1,2.47,34.68h28.31v15.63c-12.96,1.97-31.3-6.73-33.19,10.69-3.89,35.92,9.7,23.71,37.17,27.28,20.66,81.03,97,114.95,175.15,93.31,8.6-2.38,29.62-8.07,30.73-17.83.63-5.59-11.51-33.99-16.63-36.33-8.1-3.7-39.97,7.7-51.73,8.73-38.12,3.33-71.09-10.69-82.93-48.77h63.44c10.29,0,8.71-37.09,1.95-37.09h-71.25v-15.62h69.3c.87,0,3.15-1.91,4.37-2.48,3.24-3.54,3.74-26.98,1.49-30.71-1.25-1-4.91-3.91-5.85-3.91h-61.49Z"/>
  <path class="st0" d="M477.84,994.31c-1.95,8.99-14.07,13.94-22.37,14.72-41.43,3.87-88.78-3.04-130.86-.08-8.06-.35-13.89-4.53-18.29-10.99-3.51-19.86-3.81-39.99-8.64-59.69-14.73-60.14-59.9-89.74-89.56-140.79-17.93-30.86-35.1-68.35-43.23-103.18-15.19-65.11-8.21-131.7,18.22-192.9,146.95,111.88,360.69,67.95,449.97-93.66,34.87-63.13,21.01-114.32,97.22-148.74,17.37-7.84,63.83-24.6,78.51-9.51,16.9,17.38-.27,33.35-7.26,49.53-9.44,21.89-16.8,58.54-5.93,80.78,3.35,6.85,36.03,33.97,44.36,43.49,28.05,32.02,49.41,70.19,63.33,110.4,30.02.17,65-2.06,68.48,36.93,1.9,21.27,2.96,91.52-.94,110.49-6.47,31.47-41.37,33.14-67.27,31.32-12.2,43.18-35.94,83.51-65.56,116.95-32.34,36.51-73.97,59.01-79.06,114.2-2.18,23.68,9.54,62.27-24.36,65.44-41.46,3.88-88.8-3.08-130.91-.03-5.88.81-20.45-9.82-20.45-14.69v-38.07c-35.01,2.95-70.63,3.55-105.41-1.95-1.69,11.55,2.3,29.39,0,40.02ZM760.38,476.5c-33.92,5.7-32.87,59.44,1.66,63.77,51.43,6.45,50.15-72.47-1.66-63.77Z"/>
</svg>